<?xml version="1.0" encoding="UTF-8" standalone="no"?>
<!-- Created with Inkscape (http://www.inkscape.org/) -->

<svg
   version="1.1"
   id="svg1"
   width="750"
   height="750"
   viewBox="0 0 750 750"
   sodipodi:docname="logogrande.svg"
   inkscape:version="1.3.2 (091e20e, 2023-11-25)"
   xmlns:inkscape="http://www.inkscape.org/namespaces/inkscape"
   xmlns:sodipodi="http://sodipodi.sourceforge.net/DTD/sodipodi-0.dtd"
   xmlns="http://www.w3.org/2000/svg"
   xmlns:svg="http://www.w3.org/2000/svg"
   xmlns:inkstitch="http://inkstitch.org/namespace">
  <sodipodi:namedview
     id="namedview1"
     pagecolor="#ffffff"
     bordercolor="#000000"
     borderopacity="0.25"
     inkscape:showpageshadow="2"
     inkscape:pageopacity="0.0"
     inkscape:pagecheckerboard="0"
     inkscape:deskcolor="#d1d1d1"
     inkscape:zoom="2.997269"
     inkscape:cx="293.26697"
     inkscape:cy="142.96348"
     inkscape:window-width="1920"
     inkscape:window-height="1052"
     inkscape:window-x="1440"
     inkscape:window-y="0"
     inkscape:window-maximized="0"
     inkscape:current-layer="g1" />
  <metadata
     id="metadata2">
    <inkstitch:min_stitch_len_mm>0</inkstitch:min_stitch_len_mm>
    <inkstitch:collapse_len_mm>3</inkstitch:collapse_len_mm>
    <inkstitch:inkstitch_svg_version>1</inkstitch:inkstitch_svg_version>
  </metadata>
  <defs
     id="defs1" />
  <g
     inkscape:groupmode="layer"
     inkscape:label="Image"
     id="g1">
    <path
       style="fill:#000000;stroke:#000000;stroke-width:0.00000286;stroke-linecap:butt;stroke-linejoin:round;stroke-miterlimit:5;stroke-dasharray:none;paint-order:stroke markers fill"
       d="m 288.51916,624.6657 c -46.19065,-46.20137 -84.21288,-84.69215 -84.49384,-85.53504 -0.28096,-0.84289 19.24185,-21.27262 43.38406,-45.39939 l 43.89488,-43.86687 41.15534,41.12537 41.15532,41.12537 79.0851,-79.08611 79.08509,-79.08609 -79.54073,-79.55752 c -43.74737,-43.75662 -80.06973,-79.55749 -80.71631,-79.55749 -0.64658,0 -56.67517,55.08315 -124.50795,122.40699 L 123.68776,459.64194 80.393147,416.3186 C 56.581154,392.49077 37.098581,372.17689 37.098581,371.17664 c 0,-3.01403 331.716129,-333.746959 334.739149,-333.746959 1.53999,0 78.03092,75.313329 169.97986,167.362959 L 708.9975,372.15559 595.38814,485.97799 C 532.90299,548.58031 457.19153,624.29565 427.14045,654.23431 l -54.63828,54.43392 z"
       id="path2" />
    <path
       id="path3"
       style="stroke:#000000;stroke-width:1px;fill:none"
       d="M295.2180893162167,618.0019877812683 235.77606247403898,558.2461721822689 217.65553871582273,539.7980863349796 216.72770287845887,538.8161317250004 223.4014583263474,531.6788620312788 237.15298189919088,517.5002163785733 254.1043625745113,500.39899464207656 291.3045961807834,463.222490593019 325.7807044502212,497.6735514047234 366.9360125762963,538.798859524885 367.6231326353024,539.4211866715597 368.367930390134,539.9731842778721 369.1632363003634,540.4495387279729 370.0013946261085,540.845664558942 370.8743371233899,541.1577486011756 371.77366071031764,541.3827866845577 372.69070835648006,541.5186125570738 373.6166524168813,541.5639187374948 374.54257960824185,541.5182691013961 375.4595768096661,541.3821030793605 376.35881686174713,541.1567314269504 377.23164353819294,540.8443236071679 378.0696548720232,540.4478869068627 378.8647840342258,539.9712374881158 379.6093769863229,539.418963653262 380.2962661593502,538.79638167717 459.3813661593502,459.7102816771699 538.4664661593503,380.62418167716993 539.0891317500324,379.9371721659528 539.6414655373106,379.19244275619843 540.118149002226,378.39716457807543 540.5145920760483,377.5589955047134 540.8269773388533,376.68600641319813 541.0522967781294,375.7866034686807 541.1883807534577,374.86944717993754 541.2339188883602,373.94336900581186 541.188472688145,373.017286315547 541.0524797622488,372.1001165218727 540.8272496104186,371.20069121367374 540.5149510133087,370.3276711150703 540.1185911489118,369.48946268978597 539.6419866359138,368.69413719383346 539.0897267828029,367.9493529559737 538.4671293966132,367.262281634325 458.9264293966132,287.704781634325 458.9059249825511,287.68433564335896 402.3849249825511,231.49683564335896 402.332765232586,231.44538418533645 384.870165232586,214.35298418533645 384.7865976184994,214.27218864697466 379.9134976184994,209.61838864697464 379.60252576566734,209.33438875856936 377.74292576566734,207.71058875856937 377.02457266151976,207.14226620140127 376.25456576399694,206.64617035482337 375.44014130979673,206.2269633419702 374.5889529551943,205.88858471348755 373.7089998498443,205.6342144251097 372.8085514637655,205.46624295362525 371.896069873956,205.38624883207083 370.98013024095985,205.39498381526823 370.0693402227171,205.4923658151138 369.1722590830152,205.6774796720119 368.29731725473073,205.9485857552023 367.4527371137758,206.3031363111589 366.6464557082859,206.7377994064244 365.8860501692114,207.24849023987386 365.1786665032761,207.83040953014745 362.4252665032761,210.32880953014745 362.22019545375963,210.52051946002433 354.78539545375963,217.68081946002434 354.73091285327104,217.73371413547005 327.85991285327106,244.03211413547004 327.8260641901247,244.0654084195514 240.37726419012472,330.5153084195514 240.36398094004792,330.5284659501684 123.71511673238788,446.3021726033894 87.09082286141494,409.65368512893355 70.32692946170339,392.73551971255756 56.59268371557048,378.60230511685154  M281.8203106837833,631.3294122187317 222.35721068378325,571.5524122187317 222.31519877433968,571.5099105593229 204.1095987743397,552.9752105593229 203.9826007295473,552.8433865824062 197.15740072954728,545.6200865824062 196.56866888304626,544.9340465337402 196.0481938167779,544.1948836011935 195.6007398742719,543.4093639612138 195.23040297564802,542.5846781319577 194.9405731242342,541.7283751524654 194.73390337503105,540.8482934799927 194.61228554908098,539.9524892380574 194.57683291604792,539.0491624720037 194.62787000352944,538.1465820871296 194.7649296263839,537.2530101564821 194.98675716326701,536.3766262911934 195.2913220412301,535.5254527656597 195.67583632325227,534.7072810829554 196.13678022855956,533.9296006526898 196.93008022855958,532.7264006526898 197.67716551061721,531.7404092427174 200.14916551061722,528.8871092427174 200.38892875709243,528.6207425809246 209.6570287570924,518.7089425809246 209.7759950005791,518.5840193865187 223.6233950005791,504.30651938651863 223.69544133791027,504.23304019044923 240.69874133791026,487.0794401904492 240.73020806731353,487.047844775991 284.62510806731353,443.180944775991 285.31205176118004,442.55870772278513 286.0566539891573,442.0067674080621 286.8517500492421,441.53043470483567 287.6896893783277,441.1342929755305 288.5624091673543,440.8221539700111 289.46151194316667,440.5970211482108 290.3783463705728,440.46106078027873 291.3040904971101,440.41558110232256 292.2298366395234,440.46101972831593 293.14667709516044,440.59693943929483 294.04578985355386,440.82203239036045 294.9185234834574,441.1341326950074 295.75648037853625,441.53023726568927 296.5515975607074,442.0065347100888 297.2962242636235,442.5584420050484 297.9831955497788,443.1806485952766 339.1384914835104,484.30604453196236 373.61242215212593,518.7548455594367 446.0186338406498,446.3477183228301 518.4231998734729,373.94223676273293 445.57260714598635,301.07625707036163 389.08785515336007,244.92479119775334 371.69297008423695,227.89867059970493 371.5550147757058,227.76692357730803 367.9217521194537,231.26604266559045 341.09485330309525,257.5212812436903 253.66958394372682,343.9479193861286 130.34391905995207,466.3483340498316 129.65609539966147,466.96717328004746 128.91104471299676,467.51577409558655 128.11591092170454,467.9888762351452 127.27831816959775,468.3819433568024 126.40629771841964,468.6912065347542 125.50821094005556,468.91370039767486 124.59266914348241,469.047291562193 123.66845100519497,469.0906990888471 122.7444183948283,469.04350676437923 121.82943140308217,468.9061670925976 120.93226338670289,468.6799969555419 120.06151684511404,468.36716498655414 119.22554093531336,467.97067077632823 118.43235141594462,467.4943161113219 117.68955378816099,466.94266852031046 117.0042703702442,466.3210174786175 73.7095703702442,422.99771747861746 73.68124439638044,422.9692520703731 56.870844396380434,406.0041520703731 56.806416284429524,405.93849488314845 43.04011628442952,391.77229488314845  M262.90299085984554,578.8173188559838 242.8063229111963,598.80845551218  M253.20529794075583,508.0169250593759 233.07332195448697,488.06134563072317  M322.52804599133384,501.1021531583589 342.56470826244464,481.05087458370383  M431.98009104361256,493.793269431144 411.93599256556195,473.74942439963405  M494.55759868113864,431.21497052563393 474.51350020308803,411.171125494124  M499.6654394749636,321.7703667602858 479.61935128512323,341.8122218573101  M428.0202316896872,250.31924057033854 408.0356567420341,270.4224336402618  M317.6101810193194,247.52132459779017 337.5386884489452,267.680099339136  M155.9131570736707,407.6893901042128 175.88151425352672,427.80869225370765  M86.44290676240341,402.2876692730513 66.30733995154462,422.23962548417046  "
       inkstitch:satin_column="true" />
    <path
       id="path4"
       style="stroke:#000000;stroke-width:1.0015748;fill:none;stroke-dasharray:none"
       d="M56.69802704481252,378.7124727574319 49.727499412588124,371.30400150816615 58.13140299087163,362.5587015639624 95.69229019850937,324.40382702559407 148.90366337330502,270.926589886222 210.00590564688213,209.8641364398011 271.24990623572734,148.94294519504544 324.8861635155707,95.88928982987485 363.15446224673457,58.439733058304874 371.859803299678,50.12381938532452 379.56056125130675,57.44051100238984 416.29921294458944,93.32966390720179 470.0233103402123,146.51081908582032 535.1382941392749,211.47594618879768 695.6447555294932,372.15819864648614 588.7035621067031,479.2998902164283 420.4652478428494,647.546804000529 372.5154785080438,695.3172823287659 295.201299451125,617.9851517043679  M42.93477295518748,391.6621272425681 33.63317295518748,381.7761272425681 33.424517076189034,381.54694381511723 30.89191707618903,378.6718438151172 30.26726982981024,377.8814755268724 29.383669829810238,376.6318755268724 28.885860062390222,375.8489742703455 28.467229204810636,375.0210267194147 28.13181327126169,374.1560151047344 27.882846002025346,373.26227899107494 27.722727687030883,372.34843487569555 27.65300202469359,371.4232931168165 27.674341239140077,370.4957729930796 27.786539599305016,369.57481671290856 27.98851540238139,368.669303202804 28.278321402502023,367.7879625057383 28.653163584109492,366.93929161493435 29.109428099020683,366.131472554474 29.64271610748615,365.3722934965192 30.594416107486154,364.1497934965192 31.089492093765884,363.5644731018544 33.86379209376588,360.5421731018544 34.01161804908381,360.38478117144246 44.54491804908382,349.42358117144244 44.62436854348297,349.34189479241286 82.24296854348297,311.12839479241285 82.27854727286808,311.0924463803358 135.51714727286807,257.5878463803358 135.53595253134938,257.5690003406138 196.65535253134937,196.48940034061383 196.67085407785967,196.4739447359801 257.9320540778597,135.5356447359801 257.95095987639064,135.5168915146091 311.61465987639065,82.43609151460912 311.6507080001941,82.40062529052464 349.97780800019405,44.893525290524636 350.0597453132478,44.814302773260664 361.0535453132478,34.31230277326067 361.2110309317072,34.165259467931136 364.2422309317072,31.39905946793114 364.8291532605186,30.905572542209036 366.0553532605186,29.95677254220903 366.83286442337294,29.41522562821956 367.6607039432811,28.95427183694228 368.53054711060906,28.57854649488043 369.43364682930627,28.291827875841403 370.36092157723243,28.09699920681878 371.30304672945505,27.996019674416942 372.2505483261759,27.989904723376092 373.19389834236,28.078715845314612 374.1236105010432,28.261559960372672 375.03033566682154,28.536598397975194 375.9049558602542,28.901065386404156 376.7386759477733,29.35129586525006 377.5231120850736,29.882762341062026 378.6757120850736,30.75106234106203 379.321805898644,31.28428403337907 382.14390589864405,33.83188403337907 382.3207231747928,33.9956432076215 392.6247231747928,43.78574320762151 392.71912346162765,43.87668960688259 429.52702346162766,79.8334896068826 429.5716055938326,79.87733008798742 483.3311055938326,133.0935300879874 483.35742237825957,133.1196834087969 548.4912223782595,198.1035834087969 548.5025796990062,198.11493386362636 715.6824796990062,365.4779338636264 716.3042598575926,366.1646535815724 716.8558047020451,366.90896052174236 717.3318125766145,367.7037001268806 717.7277079152152,368.54123306205497 718.0396852234811,369.4135086468071 718.2647456586044,370.3121422413102 718.4007258553358,371.2284958426696 718.4463187210627,372.15376111664364 718.4010860000724,373.0790440666537 718.2654624862314,373.9954505262124 718.0407518435827,374.8941716529852 717.7291140750392,375.7665686026846 717.3335447596257,376.6042555688783 716.8578462578513,377.39918039050417 716.306591161994,378.14370195225973 715.6850783426315,378.83066363386615 602.0695946701571,492.65915316226614 433.8218946701572,660.9154531622661 433.8091976128965,660.9281267831803 379.17099761289654,715.3620267831803 378.48357903548856,715.9827938669769 377.7386851968838,716.5332747859009 376.9434738056447,717.0081799513123 376.1055860732958,717.4029459843875 375.23307328967917,717.713779565772 374.3343194578547,717.9376938857063 373.41796073194826,718.0725373443756 372.49280243207227,718.1170142267014 371.5677344337251,718.070697152908 370.6516457446948,717.9340311852293 369.7533390903009,717.708329551291 368.88144632772713,717.3957610252646 368.04434550223147,716.9993290880481 367.2500803422431,716.5228430667217 366.5062829669203,715.9708815306037 365.820100548875,715.348748295632 281.837100548875,631.3462482956321  M110.23138022512124,316.4901301703447 90.13752204372592,296.4961693113516  M320.25877010112686,107.11155649344423 300.3245497302985,86.95843103727177  M423.72477769684696,107.32783352155394 443.66669447834494,87.18232378551633  M644.7229376913863,327.8655935444342 664.7778767884056,307.8325951353139  M642.8830604162788,418.3312236785565 662.9457954441737,438.3564145801547  M422.1253546135161,639.2051176944339 442.1698386239877,659.248577181232  M331.6622471688111,647.7724656527542 311.6159488154365,667.8141105396509  "
       inkstitch:satin_column="true" />
  </g>
</svg>
